<svg width="30" height="10" viewBox="0 0 24 10" fill="none" xmlns="http://www.w3.org/2000/svg">
<path d="M6.71484 9H5.64844L2.60156 2.37891L1.45312 9H0.345703L1.82812 0.46875H2.89453L5.94727 7.11914L7.10156 0.46875H8.19727L6.71484 9ZM8.77148 6.75C8.83008 6.02344 9.26367 5.375 10.0723 4.80469L10.7402 4.35938L10.4883 3.9082C10.207 3.39258 10.082 2.91406 10.1133 2.47266C10.1602 1.82812 10.3945 1.31055 10.8164 0.919922C11.2383 0.525391 11.7695 0.335937 12.4102 0.351562C12.9375 0.359375 13.373 0.53125 13.7168 0.867188C14.0605 1.19922 14.2168 1.61328 14.1855 2.10938C14.1504 2.78125 13.7344 3.39648 12.9375 3.95508L12.0762 4.5293L13.5352 6.76172C13.8906 6.23438 14.1133 5.66797 14.2031 5.0625H15.1465C15.041 6.05859 14.6875 6.89258 14.0859 7.56445L15.0059 9H13.8223L13.3945 8.33789C12.7148 8.86914 11.9668 9.12695 11.1504 9.11133C10.4121 9.10352 9.81836 8.88086 9.36914 8.44336C8.91992 8.00195 8.7207 7.4375 8.77148 6.75ZM11.1855 8.23242C11.709 8.24414 12.2637 8.02344 12.8496 7.57031L11.2617 5.08594L11.0098 5.26172C10.3105 5.74609 9.92383 6.24414 9.84961 6.75586C9.79102 7.17773 9.88477 7.52734 10.1309 7.80469C10.377 8.08203 10.7285 8.22461 11.1855 8.23242ZM11.1562 2.43164C11.125 2.75977 11.2207 3.12109 11.4434 3.51562L11.6016 3.79102L12.498 3.1875C12.916 2.875 13.1465 2.51367 13.1895 2.10352C13.2129 1.85352 13.1445 1.64648 12.9844 1.48242C12.8242 1.31836 12.6113 1.23633 12.3457 1.23633C12.0215 1.23633 11.75 1.35547 11.5312 1.59375C11.3125 1.82812 11.1875 2.10742 11.1562 2.43164ZM22.3711 9H21.3047L18.2578 2.37891L17.1094 9H16.002L17.4844 0.46875H18.5508L21.6035 7.11914L22.7578 0.46875H23.8535L22.3711 9Z" fill="#FF0000"/>
</svg>
